<svg width="25" height="25" viewBox="0 0 25 25" fill="none" xmlns="http://www.w3.org/2000/svg">
<path d="M13.7453 11.0576H13.7645V11.0275L13.7453 11.0576ZM13.7453 11.0576H13.7645V11.0275L13.7453 11.0576ZM13.7453 11.0576H13.7645V11.0275L13.7453 11.0576ZM13.7453 11.0576H13.7645V11.0275L13.7453 11.0576ZM13.7453 11.0576H13.7645V11.0275L13.7453 11.0576ZM13.7453 11.0576H13.7645V11.0275L13.7453 11.0576ZM13.7453 11.0576H13.7645V11.0275L13.7453 11.0576ZM13.7453 11.0576H13.7645V11.0275L13.7453 11.0576ZM13.7453 11.0576H13.7645V11.0275L13.7453 11.0576ZM13.7453 11.0576H13.7645V11.0275L13.7453 11.0576ZM13.7453 11.0576H13.7645V11.0275L13.7453 11.0576ZM13.7453 11.0576H13.7645V11.0275L13.7453 11.0576ZM13.7453 11.0576H13.7645V11.0275L13.7453 11.0576ZM13.7453 11.0576H13.7645V11.0275L13.7453 11.0576ZM13.7453 11.0576H13.7645V11.0275L13.7453 11.0576ZM13.7453 11.0576H13.7645V11.0275L13.7453 11.0576ZM12.5 0C10.0277 0 7.61099 0.733112 5.55538 2.10663C3.49976 3.48015 1.89761 5.43238 0.951511 7.71645C0.0054159 10.0005 -0.242126 12.5139 0.24019 14.9386C0.722505 17.3634 1.91301 19.5907 3.66117 21.3388C5.40933 23.087 7.63661 24.2775 10.0614 24.7598C12.4861 25.2421 14.9995 24.9946 17.2835 24.0485C19.5676 23.1024 21.5199 21.5002 22.8934 19.4446C24.2669 17.389 25 14.9723 25 12.5C24.9964 9.1859 23.6783 6.00858 21.3348 3.66517C18.9914 1.32175 15.8141 0.00362236 12.5 0ZM9.37432 18.1273C9.3736 18.1827 9.35108 18.2356 9.31163 18.2746C9.27219 18.3135 9.21899 18.3353 9.16357 18.3353H6.75499C6.69982 18.3353 6.64691 18.3134 6.6079 18.2744C6.56889 18.2354 6.54697 18.1825 6.54697 18.1273V10.0339C6.54661 10.0064 6.55172 9.97905 6.56201 9.95349C6.5723 9.92794 6.58757 9.90468 6.60692 9.88508C6.62627 9.86547 6.64933 9.8499 6.67474 9.83928C6.70016 9.82865 6.72744 9.82318 6.75499 9.82319H9.16357C9.19125 9.82319 9.21865 9.82864 9.24422 9.83923C9.26979 9.84982 9.29302 9.86534 9.31259 9.88491C9.33216 9.90448 9.34769 9.92772 9.35828 9.95329C9.36887 9.97886 9.37432 10.0063 9.37432 10.0339V18.1273ZM7.87443 8.74206C7.57507 8.74206 7.28244 8.65329 7.03353 8.48698C6.78463 8.32066 6.59063 8.08428 6.47607 7.8077C6.36151 7.53114 6.33153 7.22681 6.38994 6.9332C6.44834 6.6396 6.59249 6.3699 6.80417 6.15823C7.01585 5.94655 7.28554 5.80239 7.57915 5.74399C7.87275 5.68559 8.17708 5.71557 8.45365 5.83012C8.73022 5.94468 8.96661 6.13868 9.13292 6.38759C9.29924 6.63649 9.38801 6.92913 9.38801 7.22849C9.38837 7.42735 9.34946 7.62433 9.27353 7.80813C9.19759 7.99193 9.08611 8.15893 8.94549 8.29955C8.80487 8.44017 8.63787 8.55164 8.45407 8.62758C8.27028 8.70352 8.0733 8.74242 7.87443 8.74206ZM19.567 18.1273C19.5663 18.1827 19.5438 18.2356 19.5043 18.2746C19.4649 18.3135 19.4117 18.3353 19.3563 18.3353H16.9477C16.9204 18.3353 16.8933 18.33 16.8681 18.3195C16.8428 18.309 16.8199 18.2937 16.8006 18.2744C16.7813 18.2551 16.7659 18.2322 16.7555 18.2069C16.745 18.1817 16.7397 18.1546 16.7397 18.1273V13.7782C16.7397 12.6341 16.3318 11.8623 15.3082 11.8623C14.9892 11.8641 14.6786 11.9644 14.4189 12.1497C14.1592 12.3349 13.9631 12.5959 13.8576 12.8969C13.7854 13.1193 13.7539 13.353 13.7645 13.5866V18.1273C13.7645 18.1832 13.7423 18.2368 13.7028 18.2763C13.6633 18.3159 13.6097 18.3381 13.5538 18.3381H11.1452C11.1176 18.3381 11.0904 18.3326 11.0649 18.322C11.0395 18.3114 11.0165 18.2958 10.9971 18.2762C10.9778 18.2566 10.9625 18.2333 10.9522 18.2078C10.9419 18.1822 10.9368 18.1549 10.9372 18.1273C10.9372 16.9723 10.9673 11.3641 10.9372 10.0449C10.9368 10.0173 10.9419 9.99 10.9522 9.96444C10.9625 9.93889 10.9778 9.91563 10.9971 9.89602C11.0165 9.87642 11.0395 9.86085 11.0649 9.85023C11.0904 9.8396 11.1176 9.83413 11.1452 9.83413H13.5483C13.5761 9.83377 13.6036 9.83897 13.6294 9.84943C13.6551 9.85989 13.6785 9.8754 13.6981 9.89504C13.7178 9.91469 13.7333 9.93807 13.7437 9.9638C13.7542 9.98954 13.7594 10.0171 13.759 10.0449V11.0384C14.0151 10.594 14.3879 10.2282 14.8371 9.98065C15.2863 9.73313 15.7947 9.61335 16.3072 9.63433C18.1656 9.63433 19.5615 10.8496 19.5615 13.4662L19.567 18.1273ZM13.7645 11.0658V11.0357L13.7453 11.0658H13.7645ZM13.7453 11.0658H13.7645V11.0357L13.7453 11.0658ZM13.7453 11.0658H13.7645V11.0357L13.7453 11.0658ZM13.7453 11.0658H13.7645V11.0357L13.7453 11.0658ZM13.7453 11.0658H13.7645V11.0357L13.7453 11.0658ZM13.7453 11.0658H13.7645V11.0357L13.7453 11.0658ZM13.7453 11.0658H13.7645V11.0357L13.7453 11.0658ZM13.7453 11.0658H13.7645V11.0357L13.7453 11.0658ZM13.7453 11.0658H13.7645V11.0357L13.7453 11.0658ZM13.7453 11.0658H13.7645V11.0357L13.7453 11.0658ZM13.7453 11.0658H13.7645V11.0357L13.7453 11.0658ZM13.7453 11.0658H13.7645V11.0357L13.7453 11.0658ZM13.7453 11.0658H13.7645V11.0357L13.7453 11.0658ZM13.7453 11.0658H13.7645V11.0357L13.7453 11.0658ZM13.7453 11.0658H13.7645V11.0357L13.7453 11.0658Z" fill="white"/>
</svg>
